<mxfile host="Electron" modified="2023-06-05T03:43:03.753Z" agent="Mozilla/5.0 (Macintosh; Intel Mac OS X 10_13_6) AppleWebKit/537.36 (KHTML, like Gecko) draw.io/21.2.8 Chrome/112.0.5615.165 Electron/24.2.0 Safari/537.36" etag="_zqhnKbuk5atWLrox_tX" version="21.2.8" type="device">
  <diagram name="Page-1" id="5mYnXfA64JofCVwUp34N">
    <mxGraphModel dx="954" dy="727" grid="1" gridSize="10" guides="1" tooltips="1" connect="1" arrows="1" fold="1" page="1" pageScale="1" pageWidth="850" pageHeight="1100" math="0" shadow="0">
      <root>
        <mxCell id="0" />
        <mxCell id="1" parent="0" />
        <mxCell id="wHM2OePa6ugRTWMZJlS2-2" value="PrototypeUI" style="rounded=0;whiteSpace=wrap;html=1;" vertex="1" parent="1">
          <mxGeometry x="690" y="330" width="80" height="30" as="geometry" />
        </mxCell>
        <mxCell id="wHM2OePa6ugRTWMZJlS2-3" value="EditUI" style="rounded=0;whiteSpace=wrap;html=1;" vertex="1" parent="1">
          <mxGeometry x="560" y="280" width="80" height="30" as="geometry" />
        </mxCell>
        <mxCell id="wHM2OePa6ugRTWMZJlS2-4" value="AddEnvelopeUI" style="rounded=0;whiteSpace=wrap;html=1;" vertex="1" parent="1">
          <mxGeometry x="555" y="230" width="90" height="30" as="geometry" />
        </mxCell>
        <mxCell id="wHM2OePa6ugRTWMZJlS2-5" value="DepositUI" style="rounded=0;whiteSpace=wrap;html=1;" vertex="1" parent="1">
          <mxGeometry x="560" y="380" width="80" height="30" as="geometry" />
        </mxCell>
        <mxCell id="wHM2OePa6ugRTWMZJlS2-6" value="WithdrawUI" style="rounded=0;whiteSpace=wrap;html=1;" vertex="1" parent="1">
          <mxGeometry x="560" y="330" width="80" height="30" as="geometry" />
        </mxCell>
        <mxCell id="wHM2OePa6ugRTWMZJlS2-7" value="TransferUI" style="rounded=0;whiteSpace=wrap;html=1;" vertex="1" parent="1">
          <mxGeometry x="560" y="430" width="80" height="30" as="geometry" />
        </mxCell>
        <mxCell id="wHM2OePa6ugRTWMZJlS2-9" value="" style="endArrow=none;dashed=1;html=1;dashPattern=1 3;strokeWidth=2;rounded=0;" edge="1" parent="1">
          <mxGeometry width="50" height="50" relative="1" as="geometry">
            <mxPoint x="550" y="200" as="sourcePoint" />
            <mxPoint x="550" y="200" as="targetPoint" />
            <Array as="points">
              <mxPoint x="670" y="200" />
              <mxPoint x="800" y="200" />
              <mxPoint x="800" y="480" />
              <mxPoint x="550" y="480" />
            </Array>
          </mxGeometry>
        </mxCell>
        <mxCell id="wHM2OePa6ugRTWMZJlS2-10" value="&lt;font style=&quot;font-size: 16px;&quot;&gt;UI&lt;/font&gt;" style="text;html=1;strokeColor=none;fillColor=none;align=center;verticalAlign=middle;whiteSpace=wrap;rounded=0;" vertex="1" parent="1">
          <mxGeometry x="650" y="150" width="60" height="30" as="geometry" />
        </mxCell>
        <mxCell id="wHM2OePa6ugRTWMZJlS2-11" value="Actions" style="rounded=0;whiteSpace=wrap;html=1;" vertex="1" parent="1">
          <mxGeometry x="430" y="330" width="70" height="30" as="geometry" />
        </mxCell>
      </root>
    </mxGraphModel>
  </diagram>
</mxfile>
